<?xml version="1.0" encoding="UTF-8" standalone="no" ?>
<!DOCTYPE svg PUBLIC "-//W3C//DTD SVG 1.1//EN" "http://www.w3.org/Graphics/SVG/1.1/DTD/svg11.dtd">
<svg xmlns="http://www.w3.org/2000/svg" xmlns:xlink="http://www.w3.org/1999/xlink" version="1.1" width="1080" height="1080" viewBox="0 0 1080 1080" xml:space="preserve">
<desc>Created with Fabric.js 5.2.4</desc>
<defs>
</defs>
<g transform="matrix(1 0 0 1 540 540)" id="4cc5b0d8-7fdc-4320-ae22-4be57f72c634"  >
</g>
<g transform="matrix(1 0 0 1 540 540)" id="6a1d4181-a34b-4585-b9e1-86848084c742"  >
<rect style="stroke: none; stroke-width: 1; stroke-dasharray: none; stroke-linecap: butt; stroke-dashoffset: 0; stroke-linejoin: miter; stroke-miterlimit: 4; fill: rgb(255,255,255); fill-rule: nonzero; opacity: 1; visibility: hidden;" vector-effect="non-scaling-stroke"  x="-540" y="-540" rx="0" ry="0" width="1080" height="1080" />
</g>
<g transform="matrix(1.41 0 0 1.35 540 868.61)"  >
<g style="" vector-effect="non-scaling-stroke"   >
		<g transform="matrix(1 0 0 1 -46 -259)"  >
<path style="stroke: none; stroke-width: 1; stroke-dasharray: none; stroke-linecap: butt; stroke-dashoffset: 0; stroke-linejoin: miter; stroke-miterlimit: 4; fill: rgb(253,253,253); fill-rule: nonzero; opacity: 1;" vector-effect="non-scaling-stroke"  transform=" translate(21, -376.5)" d="M 0 0 L 12 0 L 16 4 L 8 11 L -3 19 L -12 26 L -15 27 L -15 29 L -26 36 L -43 48 L -48 54 L -56 61 L -63 67 L -70 75 L -81 90 L -90 102 L -98 116 L -106 132 L -110 143 L -114 151 L -120 173 L -123 183 L -128 205 L -130 211 L -136 247 L -138 256 L -141 278 L -141 330 L -138 358 L -130 394 L -123 410 L -115 426 L -107 437 L -103 445 L -96 455 L -88 468 L -80 478 L -69 492 L -62 499 L -62 501 L -57 503 L -45 513 L -42 515 L -42 517 L -37 519 L -26 527 L -12 535 L 7 545 L 19 551 L 28 555 L 38 559 L 44 562 L 60 567 L 67 570 L 85 575 L 98 580 L 116 583 L 126 586 L 140 589 L 176 592 L 203 592 L 240 589 L 265 584 L 274 582 L 288 580 L 294 578 L 300 578 L 307 584 L 308 590 L 302 598 L 293 607 L 291 607 L 289 612 L 282 618 L 262 638 L 256 645 L 245 654 L 231 667 L 201 689 L 192 695 L 179 703 L 167 710 L 157 715 L 153 718 L 142 722 L 132 727 L 116 733 L 99 738 L 87 742 L 47 749 L 30 751 L 14 753 L -17 753 L -35 751 L -51 749 L -80 744 L -91 741 L -105 735 L -117 730 L -130 725 L -142 719 L -149 716 L -156 711 L -163 708 L -176 700 L -190 690 L -199 683 L -211 674 L -221 666 L -236 653 L -247 643 L -255 636 L -256 633 L -258 633 L -258 631 L -262 629 L -271 619 L -282 605 L -291 593 L -299 580 L -304 571 L -310 561 L -315 552 L -318 545 L -323 534 L -328 520 L -331 513 L -333 504 L -338 492 L -342 477 L -345 459 L -347 452 L -350 418 L -350 355 L -347 323 L -344 311 L -340 289 L -337 280 L -334 270 L -332 266 L -330 257 L -324 243 L -321 235 L -316 225 L -313 218 L -309 210 L -302 197 L -296 186 L -292 181 L -287 171 L -283 166 L -279 159 L -266 142 L -260 133 L -255 127 L -254 125 L -252 125 L -251 122 L -246 117 L -232 102 L -224 94 L -216 87 L -205 78 L -200 73 L -194 69 L -192 69 L -191 66 L -182 60 L -171 53 L -161 46 L -151 41 L -146 38 L -130 30 L -122 27 L -109 21 L -93 16 L -85 13 L -63 8 L -57 6 L -36 3 z" stroke-linecap="round" />
</g>
		<g transform="matrix(1 0 0 1 105.5 -333)"  >
<path style="stroke: none; stroke-width: 1; stroke-dasharray: none; stroke-linecap: butt; stroke-dashoffset: 0; stroke-linejoin: miter; stroke-miterlimit: 4; fill: rgb(234,20,173); fill-rule: nonzero; opacity: 1;" vector-effect="non-scaling-stroke"  transform=" translate(-2.5, -240.5)" d="M 0 0 L 168 0 L 182 3 L 196 10 L 202 15 L 202 17 L 206 19 L 213 26 L 221 39 L 226 55 L 228 64 L 228 78 L 224 92 L 221 100 L 216 109 L 205 121 L 194 131 L 175 139 L 159 141 L 0 142 L -19 148 L -27 151 L -40 160 L -45 163 L -55 172 L -62 180 L -70 194 L -78 211 L -81 226 L -82 242 L -80 258 L -77 272 L -71 283 L -68 290 L -60 303 L -54 309 L -54 311 L -50 313 L -43 319 L -34 325 L -23 331 L -8 336 L 11 339 L 84 339 L 86 338 L 86 313 L 85 312 L 52 311 L 31 303 L 14 289 L 6 281 L 2 273 L -2 266 L -6 246 L -6 233 L -2 214 L 6 200 L 15 190 L 24 181 L 38 174 L 57 169 L 75 168 L 141 168 L 160 169 L 180 173 L 189 177 L 200 184 L 207 191 L 212 195 L 221 210 L 226 227 L 228 240 L 228 420 L 222 440 L 219 447 L 211 458 L 208 461 L 206 461 L 204 465 L 194 473 L 189 476 L 175 480 L 167 481 L 3 481 L -18 479 L -43 475 L -59 469 L -68 466 L -92 455 L -107 447 L -116 441 L -126 433 L -131 430 L -142 421 L -155 409 L -160 404 L -169 393 L -180 379 L -186 369 L -192 361 L -203 338 L -208 325 L -218 295 L -223 259 L -223 225 L -219 191 L -213 170 L -208 155 L -205 147 L -200 136 L -195 126 L -190 117 L -184 109 L -177 98 L -171 90 L -162 79 L -160 79 L -158 75 L -146 63 L -138 56 L -126 46 L -113 37 L -97 28 L -87 23 L -60 11 L -39 5 L -30 3 L -15 1 z" stroke-linecap="round" />
</g>
		<g transform="matrix(1 0 0 1 -220 241)"  >
<path style="stroke: none; stroke-width: 1; stroke-dasharray: none; stroke-linecap: butt; stroke-dashoffset: 0; stroke-linejoin: miter; stroke-miterlimit: 4; fill: rgb(253,253,253); fill-rule: nonzero; opacity: 1;" vector-effect="non-scaling-stroke"  transform=" translate(6, -75.5)" d="M 0 0 L 14 0 L 30 2 L 38 4 L 49 6 L 54 9 L 54 15 L 47 29 L 44 38 L 40 40 L 20 34 L -2 34 L -14 40 L -19 45 L -22 50 L -26 60 L -28 68 L -28 86 L -24 99 L -19 107 L -15 112 L -8 116 L -1 117 L 13 117 L 19 115 L 19 95 L 17 94 L 0 94 L -5 91 L -5 66 L -2 64 L 56 64 L 58 66 L 58 140 L 55 144 L 41 147 L 34 149 L 13 151 L -9 151 L -23 149 L -33 145 L -42 140 L -51 132 L -51 130 L -54 129 L -61 118 L -66 108 L -70 88 L -70 64 L -66 43 L -60 33 L -54 24 L -49 19 L -42 13 L -27 5 L -11 1 z" stroke-linecap="round" />
</g>
		<g transform="matrix(1 0 0 1 -18 242)"  >
<path style="stroke: none; stroke-width: 1; stroke-dasharray: none; stroke-linecap: butt; stroke-dashoffset: 0; stroke-linejoin: miter; stroke-miterlimit: 4; fill: rgb(254,254,254); fill-rule: nonzero; opacity: 1;" vector-effect="non-scaling-stroke"  transform=" translate(-57, -74.5)" d="M 0 0 L 31 1 L 35 5 L 35 88 L 37 103 L 41 110 L 47 114 L 58 115 L 69 113 L 75 106 L 78 101 L 79 96 L 80 3 L 86 0 L 118 1 L 120 4 L 120 90 L 118 106 L 114 120 L 106 131 L 94 141 L 80 147 L 66 149 L 46 149 L 33 147 L 23 143 L 14 138 L 10 134 L 10 132 L 6 130 L 2 123 L -4 111 L -5 105 L -6 7 L -4 1 z" stroke-linecap="round" />
</g>
		<g transform="matrix(1 0 0 1 331 241)"  >
<path style="stroke: none; stroke-width: 1; stroke-dasharray: none; stroke-linecap: butt; stroke-dashoffset: 0; stroke-linejoin: miter; stroke-miterlimit: 4; fill: rgb(253,253,253); fill-rule: nonzero; opacity: 1;" vector-effect="non-scaling-stroke"  transform=" translate(-16, -73.5)" d="M 0 0 L 36 0 L 56 1 L 60 4 L 60 29 L 56 32 L 12 33 L 11 37 L 11 57 L 14 59 L 48 60 L 53 62 L 55 65 L 54 90 L 53 91 L 39 92 L 15 92 L 12 93 L 11 96 L 11 143 L 9 147 L -26 147 L -28 146 L -28 4 L -26 1 z" stroke-linecap="round" />
</g>
		<g transform="matrix(1 0 0 1 170 241.5)"  >
<path style="stroke: none; stroke-width: 1; stroke-dasharray: none; stroke-linecap: butt; stroke-dashoffset: 0; stroke-linejoin: miter; stroke-miterlimit: 4; fill: rgb(254,254,254); fill-rule: nonzero; opacity: 1;" vector-effect="non-scaling-stroke"  transform=" translate(-46, -73)" d="M 0 0 L 34 0 L 37 3 L 38 112 L 40 113 L 91 114 L 95 118 L 95 144 L 93 146 L -1 146 L -3 144 L -3 3 z" stroke-linecap="round" />
</g>
		<g transform="matrix(1 0 0 1 118 589)"  >
<path style="stroke: none; stroke-width: 1; stroke-dasharray: none; stroke-linecap: butt; stroke-dashoffset: 0; stroke-linejoin: miter; stroke-miterlimit: 4; fill: rgb(234,31,176); fill-rule: nonzero; opacity: 1;" vector-effect="non-scaling-stroke"  transform=" translate(-34, -45.5)" d="M 0 0 L 28 0 L 49 4 L 56 8 L 61 16 L 63 21 L 63 33 L 59 42 L 54 48 L 50 51 L 51 57 L 54 62 L 59 67 L 65 76 L 71 84 L 72 90 L 71 91 L 48 91 L 43 86 L 35 73 L 30 64 L 26 60 L 21 60 L 22 70 L 22 88 L 19 91 L -1 91 L -3 90 L -4 86 L -4 4 z M 25 20 L 21 24 L 21 38 L 28 40 L 35 37 L 37 33 L 37 25 L 34 22 z" stroke-linecap="round" />
</g>
		<g transform="matrix(1 0 0 1 334.5 413.5)"  >
<path style="stroke: none; stroke-width: 1; stroke-dasharray: none; stroke-linecap: butt; stroke-dashoffset: 0; stroke-linejoin: miter; stroke-miterlimit: 4; fill: rgb(234,29,175); fill-rule: nonzero; opacity: 1;" vector-effect="non-scaling-stroke"  transform=" translate(-33.5, -45)" d="M 0 0 L 18 1 L 19 2 L 20 29 L 21 32 L 24 33 L 44 33 L 46 32 L 47 8 L 47 3 L 51 0 L 69 0 L 72 3 L 72 87 L 70 90 L 50 90 L 48 89 L 47 83 L 47 63 L 46 55 L 20 55 L 20 86 L 18 90 L -3 90 L -5 88 L -5 3 z" stroke-linecap="round" />
</g>
		<g transform="matrix(1 0 0 1 -247 413.5)"  >
<path style="stroke: none; stroke-width: 1; stroke-dasharray: none; stroke-linecap: butt; stroke-dashoffset: 0; stroke-linejoin: miter; stroke-miterlimit: 4; fill: rgb(234,29,175); fill-rule: nonzero; opacity: 1;" vector-effect="non-scaling-stroke"  transform=" translate(-35, -45)" d="M 0 0 L 16 0 L 21 2 L 22 29 L 24 33 L 45 33 L 48 32 L 49 26 L 50 2 L 55 0 L 69 0 L 74 3 L 74 88 L 72 90 L 51 90 L 50 89 L 49 59 L 48 55 L 43 54 L 23 55 L 22 67 L 22 86 L 20 90 L -1 90 L -3 88 L -4 83 L -3 3 z" stroke-linecap="round" />
</g>
		<g transform="matrix(1 0 0 1 -10.5 588.5)"  >
<path style="stroke: none; stroke-width: 1; stroke-dasharray: none; stroke-linecap: butt; stroke-dashoffset: 0; stroke-linejoin: miter; stroke-miterlimit: 4; fill: rgb(234,30,176); fill-rule: nonzero; opacity: 1;" vector-effect="non-scaling-stroke"  transform=" translate(-12.5, -46)" d="M 0 0 L 14 0 L 26 1 L 31 6 L 36 20 L 41 37 L 44 46 L 49 62 L 53 71 L 58 87 L 58 91 L 56 92 L 34 92 L 31 90 L 28 79 L 26 77 L 0 77 L -4 82 L -6 91 L -8 92 L -31 92 L -33 90 L -32 84 L -26 70 L -20 49 L -17 40 L -12 24 L -5 3 z M 12 24 L 4 48 L 4 54 L 8 56 L 18 56 L 20 55 L 20 47 L 17 32 L 14 24 z" stroke-linecap="round" />
</g>
		<g transform="matrix(1 0 0 1 -13 413)"  >
<path style="stroke: none; stroke-width: 1; stroke-dasharray: none; stroke-linecap: butt; stroke-dashoffset: 0; stroke-linejoin: miter; stroke-miterlimit: 4; fill: rgb(234,32,176); fill-rule: nonzero; opacity: 1;" vector-effect="non-scaling-stroke"  transform=" translate(-14, -45.5)" d="M 0 0 L 26 0 L 31 3 L 35 13 L 38 22 L 45 46 L 48 54 L 53 70 L 58 81 L 59 90 L 58 91 L 35 91 L 32 89 L 29 77 L 26 76 L 0 76 L -5 90 L -6 91 L -29 91 L -31 90 L -30 82 L -25 66 L -21 57 L -16 39 L -13 31 L -8 13 L -6 10 L -4 3 z M 12 22 L 7 41 L 6 50 L 8 54 L 21 54 L 22 53 L 22 46 L 14 22 z" stroke-linecap="round" />
</g>
		<g transform="matrix(1 0 0 1 228.5 589.5)"  >
<path style="stroke: none; stroke-width: 1; stroke-dasharray: none; stroke-linecap: butt; stroke-dashoffset: 0; stroke-linejoin: miter; stroke-miterlimit: 4; fill: rgb(234,31,176); fill-rule: nonzero; opacity: 1;" vector-effect="non-scaling-stroke"  transform=" translate(-19.5, -46)" d="M 0 0 L 39 0 L 45 2 L 47 4 L 47 18 L 46 21 L 44 22 L 21 23 L 19 24 L 19 31 L 20 33 L 41 35 L 44 38 L 45 50 L 42 55 L 19 56 L 19 69 L 20 70 L 38 71 L 45 73 L 47 76 L 47 88 L 45 91 L 26 92 L 15 92 L -4 91 L -7 88 L -8 4 L -4 1 z" stroke-linecap="round" />
</g>
		<g transform="matrix(1 0 0 1 -126 414)"  >
<path style="stroke: none; stroke-width: 1; stroke-dasharray: none; stroke-linecap: butt; stroke-dashoffset: 0; stroke-linejoin: miter; stroke-miterlimit: 4; fill: rgb(234,31,176); fill-rule: nonzero; opacity: 1;" vector-effect="non-scaling-stroke"  transform=" translate(-24, -45.5)" d="M 0 0 L 48 0 L 50 2 L 50 18 L 48 20 L 24 20 L 22 25 L 23 32 L 24 33 L 45 34 L 48 36 L 49 43 L 48 51 L 44 54 L 23 55 L 23 68 L 48 70 L 51 75 L 51 87 L 49 90 L 22 91 L -1 90 L -3 88 L -3 4 z" stroke-linecap="round" />
</g>
		<g transform="matrix(1 0 0 1 -132 589)"  >
<path style="stroke: none; stroke-width: 1; stroke-dasharray: none; stroke-linecap: butt; stroke-dashoffset: 0; stroke-linejoin: miter; stroke-miterlimit: 4; fill: rgb(234,31,176); fill-rule: nonzero; opacity: 1;" vector-effect="non-scaling-stroke"  transform=" translate(-1, -46.5)" d="M 0 0 L 19 0 L 36 5 L 37 11 L 33 23 L 32 24 L 22 24 L 15 22 L 6 22 L -2 27 L -6 32 L -8 44 L -7 59 L -4 64 L 3 71 L 6 72 L 17 72 L 26 70 L 32 68 L 34 71 L 34 87 L 30 91 L 20 93 L -1 93 L -10 91 L -22 83 L -30 71 L -34 61 L -35 56 L -35 39 L -31 26 L -24 15 L -17 7 L -8 3 z" stroke-linecap="round" />
</g>
		<g transform="matrix(1 0 0 1 214 413.5)"  >
<path style="stroke: none; stroke-width: 1; stroke-dasharray: none; stroke-linecap: butt; stroke-dashoffset: 0; stroke-linejoin: miter; stroke-miterlimit: 4; fill: rgb(234,33,176); fill-rule: nonzero; opacity: 1;" vector-effect="non-scaling-stroke"  transform=" translate(-32, -45)" d="M 0 0 L 60 0 L 65 2 L 66 4 L 66 15 L 63 19 L 48 22 L 47 24 L 46 88 L 43 90 L 23 90 L 21 88 L 20 27 L 18 22 L 17 21 L 2 20 L -2 17 L -2 2 z" stroke-linecap="round" />
</g>
		<g transform="matrix(1 0 0 1 107 414)"  >
<path style="stroke: none; stroke-width: 1; stroke-dasharray: none; stroke-linecap: butt; stroke-dashoffset: 0; stroke-linejoin: miter; stroke-miterlimit: 4; fill: rgb(234,32,176); fill-rule: nonzero; opacity: 1;" vector-effect="non-scaling-stroke"  transform=" translate(-26, -45.5)" d="M 0 0 L 17 0 L 20 3 L 21 9 L 22 67 L 25 69 L 52 70 L 55 72 L 56 79 L 56 88 L 54 90 L 49 91 L 13 91 L -1 90 L -4 88 L -4 3 z" stroke-linecap="round" />
</g>
		<g transform="matrix(1 0 0 1 -48.5 -502.5)"  >
<path style="stroke: none; stroke-width: 1; stroke-dasharray: none; stroke-linecap: butt; stroke-dashoffset: 0; stroke-linejoin: miter; stroke-miterlimit: 4; fill: rgb(232,125,201); fill-rule: nonzero; opacity: 1;" vector-effect="non-scaling-stroke"  transform=" translate(5.5, -8)" d="M 0 0 L 2 1 L -13 16 L -13 13 L -8 8 z" stroke-linecap="round" />
</g>
</g>
</g>
</svg>